<svg width="235" height="235" viewBox="0 0 235 235" fill="none" xmlns="http://www.w3.org/2000/svg">
<mask id="mask0_2278_3570" style="mask-type:luminance" maskUnits="userSpaceOnUse" x="62" y="23" width="48" height="136">
<path d="M62.7396 23.4014H109.333V158.667H62.7396V23.4014Z" fill="white"/>
</mask>
<g mask="url(#mask0_2278_3570)">
<path d="M63.0261 27.6878C63.0261 25.391 64.8959 23.5264 67.198 23.5264H104.771C107.078 23.5264 108.943 25.391 108.943 27.6878V153.584C108.943 155.881 107.078 157.745 104.771 157.745H67.198C64.8959 157.745 63.0261 155.881 63.0261 153.584V27.6878Z" fill="white"/>
</g>
<mask id="mask1_2278_3570" style="mask-type:luminance" maskUnits="userSpaceOnUse" x="125" y="23" width="47" height="180">
<path d="M125.333 23.4014H171.281V202.636H125.333V23.4014Z" fill="white"/>
</mask>
<g mask="url(#mask1_2278_3570)">
<path d="M125.365 27.6878C125.365 25.391 127.229 23.5264 129.531 23.5264H167.109C169.412 23.5264 171.281 25.391 171.281 27.6878V198.323C171.281 200.62 169.412 202.485 167.109 202.485H129.531C127.229 202.485 125.365 200.62 125.365 198.323V27.6878Z" fill="white"/>
</g>
</svg>
