<svg width="142" height="235" viewBox="0 0 142 235" fill="none" xmlns="http://www.w3.org/2000/svg">
<path d="M0.372314 5.60901C0.372314 2.5952 2.81549 0.152031 5.8293 0.152031H54.9886C58.0024 0.152031 60.4455 2.59521 60.4455 5.60902V170.691C60.4455 173.705 58.0024 176.148 54.9886 176.148H5.82931C2.8155 176.148 0.372314 173.704 0.372314 170.691V5.60901Z" fill="black"/>
<path d="M81.9268 5.60901C81.9268 2.5952 84.3699 0.152031 87.3838 0.152031H136.543C139.557 0.152031 142 2.59521 142 5.60902V229.356C142 232.37 139.557 234.813 136.543 234.813H87.3838C84.3699 234.813 81.9268 232.37 81.9268 229.356V5.60901Z" fill="black"/>
</svg>
