<svg xmlns="http://www.w3.org/2000/svg" xmlns:xlink="http://www.w3.org/1999/xlink" width="235" zoomAndPan="magnify" viewBox="0 0 176.25 176.250001" height="235" preserveAspectRatio="xMidYMid meet" version="1.0"><defs><clipPath id="4973f103b8"><path d="M 47.054688 17.550781 L 82 17.550781 L 82 119 L 47.054688 119 Z M 47.054688 17.550781 " clip-rule="nonzero"/></clipPath><clipPath id="495594df6f"><path d="M 94 17.550781 L 128.460938 17.550781 L 128.460938 151.976562 L 94 151.976562 Z M 94 17.550781 " clip-rule="nonzero"/></clipPath></defs><g clip-path="url(#4973f103b8)"><path fill="#000000" d="M 47.269531 20.765625 C 47.269531 19.042969 48.671875 17.644531 50.398438 17.644531 L 78.578125 17.644531 C 80.308594 17.644531 81.707031 19.042969 81.707031 20.765625 L 81.707031 115.1875 C 81.707031 116.910156 80.308594 118.308594 78.578125 118.308594 L 50.398438 118.308594 C 48.671875 118.308594 47.269531 116.910156 47.269531 115.1875 Z M 47.269531 20.765625 " fill-opacity="1" fill-rule="nonzero"/></g><g clip-path="url(#495594df6f)"><path fill="#000000" d="M 94.023438 20.765625 C 94.023438 19.042969 95.421875 17.644531 97.148438 17.644531 L 125.332031 17.644531 C 127.058594 17.644531 128.460938 19.042969 128.460938 20.765625 L 128.460938 148.742188 C 128.460938 150.464844 127.058594 151.863281 125.332031 151.863281 L 97.148438 151.863281 C 95.421875 151.863281 94.023438 150.464844 94.023438 148.742188 Z M 94.023438 20.765625 " fill-opacity="1" fill-rule="nonzero"/></g></svg>